<svg width="18" height="18" viewBox="0 0 18 18" fill="none" xmlns="http://www.w3.org/2000/svg">
<path d="M2.83554 12V6.90909H6.20628V7.79652H3.91189V9.00959H5.98256V9.89702H3.91189V12H2.83554ZM6.93026 12V6.90909H8.93879C9.32491 6.90909 9.65387 6.98284 9.92565 7.13033C10.1974 7.27616 10.4046 7.47917 10.5471 7.73935C10.6913 7.99787 10.7634 8.29616 10.7634 8.63423C10.7634 8.9723 10.6904 9.2706 10.5446 9.52912C10.3988 9.78764 10.1875 9.98899 9.91073 10.1332C9.63564 10.2773 9.30254 10.3494 8.91144 10.3494H7.63126V9.48686H8.73744C8.94459 9.48686 9.11528 9.45123 9.24951 9.37997C9.3854 9.30705 9.48649 9.20679 9.55278 9.07919C9.62072 8.94993 9.6547 8.80161 9.6547 8.63423C9.6547 8.4652 9.62072 8.31771 9.55278 8.19176C9.48649 8.06416 9.3854 7.96555 9.24951 7.89595C9.11362 7.82469 8.94127 7.78906 8.73247 7.78906H8.00661V12H6.93026ZM14.2242 8.37322C14.2043 8.1727 14.119 8.01693 13.9682 7.90589C13.8174 7.79486 13.6127 7.73935 13.3542 7.73935C13.1785 7.73935 13.0302 7.7642 12.9092 7.81392C12.7882 7.86198 12.6954 7.9291 12.6308 8.01527C12.5678 8.10144 12.5364 8.19922 12.5364 8.30859C12.533 8.39974 12.5521 8.47929 12.5935 8.54723C12.6366 8.61518 12.6954 8.67401 12.77 8.72372C12.8446 8.77178 12.9308 8.81404 13.0285 8.8505C13.1263 8.8853 13.2307 8.91513 13.3418 8.93999L13.7991 9.04936C14.0212 9.09908 14.225 9.16536 14.4106 9.24822C14.5963 9.33108 14.757 9.433 14.8929 9.55398C15.0288 9.67495 15.134 9.81747 15.2086 9.98153C15.2848 10.1456 15.3238 10.3337 15.3254 10.5458C15.3238 10.8574 15.2442 11.1275 15.0868 11.3562C14.931 11.5832 14.7056 11.7597 14.4106 11.8857C14.1173 12.0099 13.7635 12.0721 13.3492 12.0721C12.9382 12.0721 12.5803 12.0091 12.2753 11.8832C11.9721 11.7572 11.7351 11.5708 11.5644 11.3239C11.3954 11.0753 11.3067 10.7679 11.2984 10.4016H12.34C12.3516 10.5723 12.4005 10.7148 12.4866 10.8292C12.5745 10.9419 12.6913 11.0272 12.8371 11.0852C12.9846 11.1416 13.1512 11.1697 13.3368 11.1697C13.5191 11.1697 13.6773 11.1432 13.8116 11.0902C13.9475 11.0372 14.0527 10.9634 14.1273 10.869C14.2018 10.7745 14.2391 10.666 14.2391 10.5433C14.2391 10.429 14.2052 10.3329 14.1372 10.255C14.0709 10.1771 13.9731 10.1108 13.8439 10.0561C13.7163 10.0014 13.5597 9.9517 13.3741 9.90696L12.8197 9.76776C12.3905 9.66335 12.0516 9.50012 11.803 9.27805C11.5545 9.05599 11.431 8.75687 11.4327 8.38068C11.431 8.07244 11.513 7.80315 11.6788 7.5728C11.8461 7.34245 12.0757 7.16264 12.3673 7.03338C12.659 6.90412 12.9904 6.83949 13.3616 6.83949C13.7395 6.83949 14.0693 6.90412 14.351 7.03338C14.6344 7.16264 14.8548 7.34245 15.0122 7.5728C15.1696 7.80315 15.2508 8.06996 15.2558 8.37322H14.2242Z" fill="white"/>
<rect x="1.25" y="5.25" width="15.5" height="8.08038" stroke="white" stroke-width="0.5"/>
</svg>
