<svg width="18" height="18" viewBox="0 0 18 18" fill="none" xmlns="http://www.w3.org/2000/svg">
<path d="M9.13 3.59C9.15 3.58 9.24 3.575 9.4 3.575C9.57 3.595 9.68 3.61 9.73 3.62C10.12 3.74 10.4 3.97 10.57 4.31C10.66 4.5 10.705 4.685 10.705 4.865C10.705 5.055 10.66 5.24 10.57 5.42C10.4 5.77 10.12 6.005 9.73 6.125C9.64 6.145 9.515 6.155 9.355 6.155C9.185 6.155 9.06 6.145 8.98 6.125C8.58 6.005 8.295 5.77 8.125 5.42C8.045 5.26 8.005 5.075 8.005 4.865C8.005 4.725 8.01 4.625 8.02 4.565C8.07 4.385 8.16 4.215 8.29 4.055C8.5 3.805 8.78 3.65 9.13 3.59ZM9.025 7.31C10.025 7.27 10.505 7.25 10.465 7.25H10.555V10.085V12.92H11.02H11.485V13.46V14H11.35L10.39 13.97C9.84 13.96 9.27 13.96 8.68 13.97L7.66 14H7.525V13.46V12.92H8.05H8.56V10.865C8.56 9.475 8.555 8.76 8.545 8.72C8.505 8.6 8.44 8.53 8.35 8.51C8.21 8.47 8.01 8.45 7.75 8.45H7.57V7.91V7.37H7.615L9.025 7.31Z" fill="white"/>
</svg>
